<svg width="24" height="24" viewBox="0 0 24 24" fill="none" xmlns="http://www.w3.org/2000/svg">
<path d="M18.7913 11L7.62125 11L12.5013 6.12001C12.8913 5.73001 12.8913 5.09001 12.5013 4.70001C12.1113 4.31001 11.4813 4.31001 11.0913 4.70001L4.50125 11.29C4.11125 11.68 4.11125 12.31 4.50125 12.7L11.0813 19.3C11.2681 19.4873 11.5217 19.5925 11.7863 19.5925C12.0508 19.5925 12.3044 19.4873 12.4913 19.3C12.8813 18.91 12.8813 18.28 12.4913 17.89L7.62125 13L18.7913 13C19.3413 13 19.7913 12.55 19.7913 12C19.7913 11.45 19.3413 11 18.7913 11Z" fill="#DDE1E5"/>
</svg>
