<svg width="24" height="24" viewBox="0 0 24 24" fill="none" xmlns="http://www.w3.org/2000/svg">
<path d="M10.9998 5.20874L10.9998 16.3787L6.1198 11.4987C5.7298 11.1087 5.0898 11.1087 4.6998 11.4987C4.3098 11.8887 4.3098 12.5187 4.6998 12.9087L11.2898 19.4987C11.6798 19.8887 12.3098 19.8887 12.6998 19.4987L19.2998 12.9187C19.4871 12.7319 19.5923 12.4783 19.5923 12.2137C19.5923 11.9492 19.4871 11.6956 19.2998 11.5087C18.9098 11.1187 18.2798 11.1187 17.8898 11.5087L12.9998 16.3787L12.9998 5.20874C12.9998 4.65874 12.5498 4.20874 11.9998 4.20874C11.4498 4.20874 10.9998 4.65874 10.9998 5.20874Z" fill="#A90F09"/>
</svg>
