<svg width="24" height="24" viewBox="0 0 24 24" fill="none" xmlns="http://www.w3.org/2000/svg">
<path d="M13 18.7913L13 7.62126L17.88 12.5013C18.27 12.8913 18.91 12.8913 19.3 12.5013C19.69 12.1113 19.69 11.4813 19.3 11.0913L12.71 4.50126C12.32 4.11126 11.69 4.11126 11.3 4.50126L4.69999 11.0813C4.51274 11.2681 4.40751 11.5217 4.40751 11.7863C4.40751 12.0508 4.51274 12.3044 4.69999 12.4913C5.08999 12.8813 5.71999 12.8813 6.10999 12.4913L11 7.62126L11 18.7913C11 19.3413 11.45 19.7913 12 19.7913C12.55 19.7913 13 19.3413 13 18.7913Z" fill="#A90F09"/>
</svg>
