<svg width="24" height="24" viewBox="0 0 24 24" fill="none" xmlns="http://www.w3.org/2000/svg">
<path d="M11 5.20874L11 16.3787L6.12001 11.4987C5.73001 11.1087 5.09001 11.1087 4.70001 11.4987C4.31001 11.8887 4.31001 12.5187 4.70001 12.9087L11.29 19.4987C11.68 19.8887 12.31 19.8887 12.7 19.4987L19.3 12.9187C19.4873 12.7319 19.5925 12.4783 19.5925 12.2137C19.5925 11.9492 19.4873 11.6956 19.3 11.5087C18.91 11.1187 18.28 11.1187 17.89 11.5087L13 16.3787L13 5.20874C13 4.65874 12.55 4.20874 12 4.20874C11.45 4.20874 11 4.65874 11 5.20874Z" fill="#A90F09"/>
</svg>
