<?xml version="1.0" encoding="utf-8"?>
<!-- Generator: Adobe Illustrator 26.3.1, SVG Export Plug-In . SVG Version: 6.00 Build 0)  -->
<svg version="1.1" id="Ebene_1" xmlns="http://www.w3.org/2000/svg" xmlns:xlink="http://www.w3.org/1999/xlink" x="0px" y="0px"
	 viewBox="0 0 478.9 274.9" style="enable-background:new 0 0 478.9 274.9;" xml:space="preserve">
<style type="text/css">
	.st0{fill:#FFFFFF;}
	.st1{fill:#A90F09;}
	.st2{fill:none;stroke:#A90F09;stroke-width:1.0001;stroke-miterlimit:22.9256;}
	.st3{fill-rule:evenodd;clip-rule:evenodd;}
	.st4{fill:none;stroke:#000000;stroke-width:0.5669;stroke-miterlimit:22.9256;}
	.st5{fill-rule:evenodd;clip-rule:evenodd;fill:#0A0E13;}
	.st6{fill-rule:evenodd;clip-rule:evenodd;fill:#A90F09;}
	.st7{fill-rule:evenodd;clip-rule:evenodd;fill:#00060A;}
	.st8{fill-rule:evenodd;clip-rule:evenodd;fill:#FFFFFF;}
</style>
<rect x="810" y="176.9" class="st0" width="825" height="463.5"/>
<path d="M99.6,128.6c2.5,2.3,4.6,3.8,6.5,4.7c1.9,0.8,3.6,1.3,5,1.3c0.8,0,1.4-0.1,1.7-0.2c0.4-0.1,0.7-0.3,1-0.5
	c4.1-0.9,7.1-2.1,9-3.4c2-1.4,2.9-2.7,2.9-4c0-0.9-0.5-1.7-1.4-2.2c-0.9-0.6-2.2-0.9-3.7-0.9c-0.7,0-1.5,0.1-2.4,0.2
	c-0.8,0.2-1.8,0.2-3,0.2c-4.9,0-9.8-1.6-14.5-4.9c-4.8-3.3-7.4-6.4-7.9-9.2c-0.5-2.9-0.8-4.7-0.8-5.5c0-4.9,2.7-9,8.2-12.2
	c5.5-3.3,11.3-4.9,17.3-4.9c2.7,0,5.1,0.4,7,1.2c2,0.8,4.1,1.3,6.3,1.4c2.3,0.2,3.4,0.8,3.4,1.8c0,0.8-0.6,3.3-1.7,7.4
	c-1.1,4.1-2.2,6.1-3.1,6.1c-0.9,0-2-1.7-3.4-5.2c-3-3.3-4.9-5.1-5.8-5.5c-1.3-0.1-2.6-0.3-3.7-0.6c-1.2-0.3-2.1-0.4-2.9-0.4
	c-2.7,0-4.9,1-6.7,3.1c-1.8,2.1-2.6,4.5-2.6,7.3c0,2,0.5,3.9,1.5,5.6c1,1.7,2.3,3,3.9,3.9c1.6,0.9,3,1.4,4.1,1.7
	c1.1,0.2,2.3,0.3,3.4,0.3c1.3,0,3.5-0.2,6.4-0.7c2.9-0.5,4.8-0.7,5.6-0.7c1.8,0,3.3,0.3,4.6,1c1.3,0.7,2.3,1.7,3,3
	c0.8,1.4,1.3,2.6,1.5,3.6c0.2,1,0.3,2,0.3,3c0,3.1-0.6,5.9-1.8,8.2c-1.2,2.4-2.5,4.5-3.8,6.3c-1.3,1.8-3.3,3.1-6,3.9
	c-2.7,0.8-5.7,1.2-9.2,1.2c-6.7,0-13.5-1.1-20.5-3.4c-7-2.3-10.5-4.3-10.5-6.2c0-0.3,0.6-1,1.9-2.1c1.3-1,2.5-2.5,3.5-4.5
	c1-1.9,1.8-2.9,2.2-2.9c0.4,0,0.9,0.3,1.6,0.8C97.1,126.4,98.2,127.3,99.6,128.6"/>
<path d="M171.6,115.7c-0.5-1.6-1.3-3.7-2.5-6.3c-1.1-2.6-2.6-5.2-4.4-8.1c-0.8,1.6-1.6,3.6-2.6,6.2c-1,2.6-2,5.1-3.2,7.5
	c5.2,0,8.7,0.1,10.3,0.2C170.8,115.3,171.6,115.5,171.6,115.7 M165.7,88.4c3.1,4.7,5.1,7.6,5.8,8.8c0.7,1.2,1.9,3.4,3.5,6.7
	c1.6,3.3,3.8,7.5,6.4,12.6c2.6,5.1,4.4,8.5,5.2,10.1c0.8,1.7,1.8,3.8,2.8,6.5c1.1,2.6,2.3,5.6,3.6,8.8c-3.1,0.3-6.3,0.6-9.4,0.9
	c-3.1,0.3-4.8,0.3-4.9,0.2c-0.1-0.1-1.1-3.2-3-9.2c-1.9-6-2.8-9.1-2.8-9.3c-0.9,0-1.7,0-2.6,0c-2.9,0.2-5.1,0.3-6.5,0.3
	c-1.3,0-2.6,0-3.8,0c-1.1-0.1-1.9-0.2-2.5-0.3c-0.5,1.9-1.3,4.6-2.3,8.1c-1,3.5-1.8,6.8-2.5,9.7c-2.5,0.1-5.6,0.2-9.5,0.4
	c-3.9,0.2-5.9,0.4-5.9,0.6c0.7-1.4,1.6-3.2,2.5-5.4c1-2.2,2.7-6.5,5.2-13c2.5-6.5,4-10.4,4.6-11.8c0.6-1.4,2.2-4.7,4.8-9.9
	c2.4-5.5,4.3-9.6,5.5-12.2c1.3-2.7,2.5-4,3.6-4C164.3,86.8,165,87.3,165.7,88.4z"/>
<path d="M192.2,144.1V90.1l15.4-3.1l-2.4,46.9c5.8-0.6,10.7-1.2,14.8-1.7c4.1-0.5,8.3-1.9,12.5-4.1c0.1,0.7,0.3,1.6,0.4,2.5
	c0.1,1,0.2,2.1,0.2,3.5c0,1.8-0.1,3.4-0.4,4.7c-0.3,1.4-0.8,2.6-1.5,3.6L192.2,144.1z"/>
<path d="M234,144.1V90.1l15.4-3.1l-2.4,46.9c5.8-0.6,10.7-1.2,14.8-1.7c4.1-0.5,8.3-1.9,12.5-4.1c0.1,0.7,0.3,1.6,0.4,2.5
	c0.1,1,0.2,2.1,0.2,3.5c0,1.8-0.1,3.4-0.4,4.7c-0.3,1.4-0.8,2.6-1.5,3.6L234,144.1z"/>
<polygon points="290.2,109.9 272.1,87.3 287.6,89.4 297.2,105.8 309.1,88.4 324.3,86.7 299.5,119.2 303.6,142.1 286.1,145.5 "/>
<path d="M334.3,128.6c2.5,2.3,4.6,3.8,6.5,4.7c1.9,0.8,3.6,1.3,5,1.3c0.8,0,1.4-0.1,1.7-0.2c0.4-0.1,0.7-0.3,1-0.5
	c4.1-0.9,7.1-2.1,9-3.4c2-1.4,2.9-2.7,2.9-4c0-0.9-0.5-1.7-1.4-2.2c-0.9-0.6-2.2-0.9-3.7-0.9c-0.7,0-1.5,0.1-2.4,0.2
	c-0.8,0.2-1.8,0.2-3,0.2c-4.9,0-9.8-1.6-14.5-4.9c-4.8-3.3-7.4-6.4-7.9-9.2c-0.5-2.9-0.8-4.7-0.8-5.5c0-4.9,2.7-9,8.2-12.2
	c5.5-3.3,11.3-4.9,17.3-4.9c2.7,0,5.1,0.4,7,1.2c2,0.8,4.1,1.3,6.3,1.4c2.3,0.2,3.4,0.8,3.4,1.8c0,0.8-0.6,3.3-1.7,7.4
	c-1.1,4.1-2.2,6.1-3.1,6.1c-0.9,0-2-1.7-3.4-5.2c-3-3.3-4.9-5.1-5.8-5.5c-1.3-0.1-2.6-0.3-3.7-0.6c-1.2-0.3-2.1-0.4-2.9-0.4
	c-2.7,0-4.9,1-6.7,3.1c-1.8,2.1-2.6,4.5-2.6,7.3c0,2,0.5,3.9,1.5,5.6c1,1.7,2.3,3,3.9,3.9c1.6,0.9,3,1.4,4.1,1.7
	c1.1,0.2,2.3,0.3,3.4,0.3c1.3,0,3.5-0.2,6.4-0.7c2.9-0.5,4.8-0.7,5.6-0.7c1.8,0,3.3,0.3,4.6,1c1.3,0.7,2.3,1.7,3,3
	c0.8,1.4,1.3,2.6,1.5,3.6c0.2,1,0.3,2,0.3,3c0,3.1-0.6,5.9-1.8,8.2c-1.2,2.4-2.5,4.5-3.8,6.3c-1.3,1.8-3.3,3.1-6,3.9
	c-2.7,0.8-5.7,1.2-9.2,1.2c-6.7,0-13.5-1.1-20.5-3.4c-7-2.3-10.5-4.3-10.5-6.2c0-0.3,0.6-1,1.9-2.1c1.3-1,2.5-2.5,3.5-4.5
	c1-1.9,1.8-2.9,2.2-2.9c0.4,0,0.9,0.3,1.6,0.8C331.8,126.4,332.9,127.3,334.3,128.6"/>
<path class="st1" d="M104.3,151.1c-37.9-11-79.7,2-87,5.1c-10.1,4.3-13.8,7.3-17.2,10c-0.6,1,2.4,2.4,2.3,3.4
	c10.7-7.7,20.8-11.4,29.9-13.7c3.3,18.4,5.6,39.3,3.7,57.8c-1.1,10-2.4,17.6-6.3,23.9l4,0.9c11.5-24.8,4.6-71.2,3.7-83.5
	c6.8-1.7,33.4-10.1,65.5-1.6L104.3,151.1z"/>
<path class="st1" d="M80.9,222.7c-0.1-0.7-2-0.7-2.4-1.3c-1.4-1.9-0.7-15.8-0.9-17.9c-0.1-3.7-0.6-10.1,0.7-16.5
	c-0.9-0.9-3.8-0.6-4.8-0.1c-1.6,6-1.4,30.7,0,37.7c1.9,2.3,4.4,2.1,6.8,2.1C80.3,226.7,81.3,225.5,80.9,222.7 M80.6,161.6
	c-0.9-0.9-3.8-0.3-5-0.1c-1.6,2.6-1,8.3-1,11.2c1.1,0.7,3.6,1.1,4.6,0C79.5,169.9,80.6,164.5,80.6,161.6z"/>
<path class="st1" d="M114.5,187.4c6.8,1.3-2.7,10.8-4.7,12.4c-4,3.1-10.1,6.3-14.8,7.8C95,198.4,102.7,185.3,114.5,187.4
	 M126.3,213.7c-4,0-10.2,9.3-19.6,9.5c-3.6,0.1-6-0.6-8.3-3.6c-2.1-2.7-2.3-5.4-3.1-8.5c6.1-2.4,12.2-4.6,17.1-9.1
	c2.8-2.7,10.4-9.3,8.8-13.8c-1.3-3.3-5.3-4.1-8.4-4.3c-24.3-1.1-33.6,45.3-5.8,42.4c5.8-0.6,11-4.1,15.2-8
	C123.8,217,125.3,215.6,126.3,213.7z"/>
<path class="st1" d="M163.3,188.2c-0.7-2.6-5.3-2.6-6.8-1.7c-4.7,2.6-12.2,7.3-17.5,19.5c0.3-3.6,2.3-17.5,1-19.2
	c-1.7,0.6-3.3,0.9-5.1,1.3c0,12.4-1.4,24.8-1.4,37.1c0.6,0.9,3.1,0.6,4.3,0.4c1-0.7-0.4-11.4,2.1-16.2c5.7-11.1,13.2-19.1,18.8-19.1
	c1.9,0.3,1.4,1.7,0.9,8l3.6-1.7C163.3,193.5,164.3,191.4,163.3,188.2"/>
<path class="st1" d="M200.8,186.4c-2-1.4-14.8,1.1-17.5,1.7c-0.1-4.1,1.1-18.6,0.7-21.3c-0.1-0.6-0.1-1.3-0.6-1.7
	c-1.4,0-4.4,0.7-5.3,2c0,7.5,0,14.5,0.1,22.1c-1.7,0.4-6,1.7-7.3,2.6c0,0.4,0,1,0.1,1.4c3.1,1.9,4.8-0.9,7.4-1.3l-0.3,0.1
	c0.1,6.3-0.9,30.5,4.1,34.2c2.7,2,13.5,2.8,17.6-11.5c0,0,0.4,0-1.3-2.4c-0.6,5-9.7,16.4-14.2,9.4c-3-4.4-1.3-28.8-1.4-30.6
	c5.1-1.3,10-2.1,15.2-2.1C199.2,188.1,200.5,187.7,200.8,186.4"/>
<path class="st1" d="M238,188.2c-0.7-2.6-5.3-2.6-6.8-1.7c-4.7,2.6-12.2,7.3-17.5,19.5c0.3-3.6,2.3-17.5,1-19.2
	c-1.7,0.6-3.3,0.9-5.1,1.3c0,12.4-1.4,24.8-1.4,37.1c0.6,0.9,3.1,0.6,4.3,0.4c1-0.7-0.4-11.4,2.1-16.2c5.7-11.1,13.2-19.1,18.8-19.1
	c1.9,0.3,1.4,1.7,0.9,8l3.6-1.7C238,193.5,239,191.4,238,188.2"/>
<path class="st1" d="M276.5,186.7c0.1,5.1,0,12.7-6,22.2c-3.3,5.1-14.9,13.1-18.4,13.4C245.6,221.3,252.4,189.1,276.5,186.7
	 M289,222.6l-2.3-0.7c-2-7.5-3.3-15.4-4.3-23.2c-0.6-5-1.3-10-1.3-15.1c0-0.6-0.3-1-0.9-1c-30-1.4-43.6,45-28.2,43.3
	c5.4-0.6,13.8-6.8,17.4-10.7c3.4-3.7,5.4-7,8.3-12.4c0.9,7.1,1.4,14.4,3.7,21.2c1.9,1.7,4.6,2.3,7,1.6l0.1-0.4L289,222.6z"/>
<path class="st1" d="M305.4,222.7c-0.1-0.7-2-0.7-2.4-1.3c-1.4-1.9-0.7-15.8-0.9-17.9c-0.1-3.7-0.6-10.1,0.7-16.5
	c-0.9-0.9-3.8-0.6-4.8-0.1c-1.6,6-1.4,30.7,0,37.7c1.9,2.3,4.4,2.1,6.8,2.1C304.8,226.7,305.8,225.5,305.4,222.7 M305.1,161.6
	c-0.9-0.9-3.8-0.3-5-0.1c-1.6,2.6-1,8.3-1,11.2c1.1,0.7,3.6,1.1,4.6,0C303.9,169.9,305.1,164.5,305.1,161.6z"/>
<path class="st1" d="M352.2,224c0.1-1.3,0.6-3.4-0.1-4.4c-0.7,0.1-1.3,1.1-2.6,1.1c-3.8-2.6-3.6-19.2-3-24.1
	c0.3-3.1,1.3-6.7,0.4-9.8c-0.7-2.6-5.4-1.1-7-0.3c-9,5-15.5,15.8-20.6,24.5c0.3-3.6,2.8-22.5,1.6-24.2c-1.7,0.6-3.3,0.9-5.1,1.3
	c0,12.4-1.4,24.8-1.4,37.1c0.6,0.9,3.1,0.6,4.3,0.4c0.7-5.7,0.1-7.5,6.1-17.5c2.6-4.4,11.4-16.8,16.8-16.8c0.9,3.4,0.3,7.4,0.3,10.8
	c0,6.4,0,18.6,4.1,23.5C347.9,225.7,350.5,225.3,352.2,224"/>
<path class="st1" d="M368.6,222.7c-0.1-0.7-2-0.7-2.4-1.3c-1.4-1.9-0.7-15.8-0.9-17.9c-0.1-3.7-0.6-10.1,0.7-16.5
	c-0.9-0.9-3.8-0.6-4.8-0.1c-1.6,6-1.4,30.7,0,37.7c1.9,2.3,4.4,2.1,6.8,2.1C368,226.7,369,225.5,368.6,222.7 M368.3,161.6
	c-0.9-0.9-3.8-0.3-5-0.1c-1.6,2.6-1,8.3-1,11.2c1.1,0.7,3.6,1.1,4.6,0C367.1,169.9,368.3,164.5,368.3,161.6z"/>
<path class="st1" d="M415.4,224c0.1-1.3,0.6-3.4-0.1-4.4c-0.7,0.1-1.3,1.1-2.6,1.1c-3.8-2.6-3.6-19.2-3-24.1
	c0.3-3.1,1.3-6.7,0.4-9.8c-0.7-2.6-5.4-1.1-7-0.3c-9,5-15.5,15.8-20.6,24.5c0.3-3.6,2.8-22.5,1.6-24.2c-1.7,0.6-3.3,0.9-5.1,1.3
	c0,12.4-1.4,24.8-1.4,37.1c0.6,0.9,3.1,0.6,4.3,0.4c0.7-5.7,0.1-7.5,6.1-17.5c2.6-4.4,11.4-16.8,16.8-16.8c0.9,3.4,0.3,7.4,0.3,10.8
	c0,6.4,0,18.6,4.1,23.5C411.1,225.7,413.7,225.3,415.4,224"/>
<path class="st1" d="M453.3,186.7c0.1,5.1,0,12.7-6,22.2c-3.3,5.1-14.9,13.1-18.4,13.4C422.4,221.3,429.2,189.1,453.3,186.7
	 M470.9,253.9c-0.1-12.8-4.8-22.9-8.1-35c-0.3-1-0.4-2-0.7-3.1c-1.3-5.6-2.3-11.4-2.8-17.1c-0.7-5-1.3-10-1.3-15.1
	c0-0.6-0.3-1-0.9-1c-29.9-1.4-43.6,45-28.2,43.3c5.4-0.6,13.8-6.8,17.4-10.7c3.4-3.7,5.4-7,8.3-12.4c0.9,6.8,3,16.9,5,23.8
	c2.8,10,5.7,19.4,5.1,30.2c-1.6,24.5-42.3,14.8-45.1-1.3c-2.1-2.1-4-5.6-0.4-7.4l1.3-2.3c-1.7-0.1-5.6,0.7-7,1.6
	c-4.6,2.7,1.6,12,4.1,14.5l2.6,2.6c10.7,10.7,30.3,14.8,43,5C468.5,265.1,470.9,260.8,470.9,253.9z"/>
<path class="st2" d="M104.3,151.1c-37.9-11-79.7,2-87,5.1c-10.1,4.3-13.8,7.3-17.2,10c-0.6,1,2.4,2.4,2.3,3.4
	c10.7-7.7,20.8-11.4,29.9-13.7c3.3,18.4,5.6,39.3,3.7,57.8c-1.1,10-2.4,17.6-6.3,23.9l4,0.9c11.5-24.8,4.6-71.2,3.7-83.5
	c6.8-1.7,33.4-10.1,65.5-1.6L104.3,151.1z"/>
<path class="st2" d="M80.9,222.7c-0.1-0.7-2-0.7-2.4-1.3c-1.4-1.9-0.7-15.8-0.9-17.9c-0.1-3.7-0.6-10.1,0.7-16.5
	c-0.9-0.9-3.8-0.6-4.8-0.1c-1.6,6-1.4,30.7,0,37.7c1.9,2.3,4.4,2.1,6.8,2.1C80.3,226.7,81.3,225.5,80.9,222.7z M80.6,161.6
	c-0.9-0.9-3.8-0.3-5-0.1c-1.6,2.6-1,8.3-1,11.2c1.1,0.7,3.6,1.1,4.6,0C79.5,169.9,80.6,164.5,80.6,161.6z"/>
<path class="st2" d="M114.5,187.4c6.8,1.3-2.7,10.8-4.7,12.4c-4,3.1-10.1,6.3-14.8,7.8C95,198.4,102.7,185.3,114.5,187.4z
	 M126.3,213.7c-4,0-10.2,9.3-19.6,9.5c-3.6,0.1-6-0.6-8.3-3.6c-2.1-2.7-2.3-5.4-3.1-8.5c6.1-2.4,12.2-4.6,17.1-9.1
	c2.8-2.7,10.4-9.3,8.8-13.8c-1.3-3.3-5.3-4.1-8.4-4.3c-24.3-1.1-33.6,45.3-5.8,42.4c5.8-0.6,11-4.1,15.2-8
	C123.8,217,125.3,215.6,126.3,213.7z"/>
<path class="st2" d="M163.3,188.2c-0.7-2.6-5.3-2.6-6.8-1.7c-4.7,2.6-12.2,7.3-17.5,19.5c0.3-3.6,2.3-17.5,1-19.2
	c-1.7,0.6-3.3,0.9-5.1,1.3c0,12.4-1.4,24.8-1.4,37.1c0.6,0.9,3.1,0.6,4.3,0.4c1-0.7-0.4-11.4,2.1-16.2c5.7-11.1,13.2-19.1,18.8-19.1
	c1.9,0.3,1.4,1.7,0.9,8l3.6-1.7C163.3,193.5,164.3,191.4,163.3,188.2z"/>
<path class="st2" d="M200.8,186.4c-2-1.4-14.8,1.1-17.5,1.7c-0.1-4.1,1.1-18.6,0.7-21.3c-0.1-0.6-0.1-1.3-0.6-1.7
	c-1.4,0-4.4,0.7-5.3,2c0,7.5,0,14.5,0.1,22.1c-1.7,0.4-6,1.7-7.3,2.6c0,0.4,0,1,0.1,1.4c3.1,1.9,4.8-0.9,7.4-1.3l-0.3,0.1
	c0.1,6.3-0.9,30.5,4.1,34.2c2.7,2,13.5,2.8,17.6-11.5c0,0,0.4,0-1.3-2.4c-0.6,5-9.7,16.4-14.2,9.4c-3-4.4-1.3-28.8-1.4-30.6
	c5.1-1.3,10-2.1,15.2-2.1C199.2,188.1,200.5,187.7,200.8,186.4z"/>
<path class="st2" d="M238,188.2c-0.7-2.6-5.3-2.6-6.8-1.7c-4.7,2.6-12.2,7.3-17.5,19.5c0.3-3.6,2.3-17.5,1-19.2
	c-1.7,0.6-3.3,0.9-5.1,1.3c0,12.4-1.4,24.8-1.4,37.1c0.6,0.9,3.1,0.6,4.3,0.4c1-0.7-0.4-11.4,2.1-16.2c5.7-11.1,13.2-19.1,18.8-19.1
	c1.9,0.3,1.4,1.7,0.9,8l3.6-1.7C238,193.5,239,191.4,238,188.2z"/>
<path class="st2" d="M276.5,186.7c0.1,5.1,0,12.7-6,22.2c-3.3,5.1-14.9,13.1-18.4,13.4C245.6,221.3,252.4,189.1,276.5,186.7z
	 M289,222.6l-2.3-0.7c-2-7.5-3.3-15.4-4.3-23.2c-0.6-5-1.3-10-1.3-15.1c0-0.6-0.3-1-0.9-1c-30-1.4-43.6,45-28.2,43.3
	c5.4-0.6,13.8-6.8,17.4-10.7c3.4-3.7,5.4-7,8.3-12.4c0.9,7.1,1.4,14.4,3.7,21.2c1.9,1.7,4.6,2.3,7,1.6l0.1-0.4L289,222.6z"/>
<path class="st2" d="M305.4,222.7c-0.1-0.7-2-0.7-2.4-1.3c-1.4-1.9-0.7-15.8-0.9-17.9c-0.1-3.7-0.6-10.1,0.7-16.5
	c-0.9-0.9-3.8-0.6-4.8-0.1c-1.6,6-1.4,30.7,0,37.7c1.9,2.3,4.4,2.1,6.8,2.1C304.8,226.7,305.8,225.5,305.4,222.7z M305.1,161.6
	c-0.9-0.9-3.8-0.3-5-0.1c-1.6,2.6-1,8.3-1,11.2c1.1,0.7,3.6,1.1,4.6,0C303.9,169.9,305.1,164.5,305.1,161.6z"/>
<path class="st2" d="M352.2,224c0.1-1.3,0.6-3.4-0.1-4.4c-0.7,0.1-1.3,1.1-2.6,1.1c-3.8-2.6-3.6-19.2-3-24.1
	c0.3-3.1,1.3-6.7,0.4-9.8c-0.7-2.6-5.4-1.1-7-0.3c-9,5-15.5,15.8-20.6,24.5c0.3-3.6,2.8-22.5,1.6-24.2c-1.7,0.6-3.3,0.9-5.1,1.3
	c0,12.4-1.4,24.8-1.4,37.1c0.6,0.9,3.1,0.6,4.3,0.4c0.7-5.7,0.1-7.5,6.1-17.5c2.6-4.4,11.4-16.8,16.8-16.8c0.9,3.4,0.3,7.4,0.3,10.8
	c0,6.4,0,18.6,4.1,23.5C347.9,225.7,350.5,225.3,352.2,224z"/>
<path class="st2" d="M368.6,222.7c-0.1-0.7-2-0.7-2.4-1.3c-1.4-1.9-0.7-15.8-0.9-17.9c-0.1-3.7-0.6-10.1,0.7-16.5
	c-0.9-0.9-3.8-0.6-4.8-0.1c-1.6,6-1.4,30.7,0,37.7c1.9,2.3,4.4,2.1,6.8,2.1C368,226.7,369,225.5,368.6,222.7z M368.3,161.6
	c-0.9-0.9-3.8-0.3-5-0.1c-1.6,2.6-1,8.3-1,11.2c1.1,0.7,3.6,1.1,4.6,0C367.1,169.9,368.3,164.5,368.3,161.6z"/>
<path class="st2" d="M415.4,224c0.1-1.3,0.6-3.4-0.1-4.4c-0.7,0.1-1.3,1.1-2.6,1.1c-3.8-2.6-3.6-19.2-3-24.1
	c0.3-3.1,1.3-6.7,0.4-9.8c-0.7-2.6-5.4-1.1-7-0.3c-9,5-15.5,15.8-20.6,24.5c0.3-3.6,2.8-22.5,1.6-24.2c-1.7,0.6-3.3,0.9-5.1,1.3
	c0,12.4-1.4,24.8-1.4,37.1c0.6,0.9,3.1,0.6,4.3,0.4c0.7-5.7,0.1-7.5,6.1-17.5c2.6-4.4,11.4-16.8,16.8-16.8c0.9,3.4,0.3,7.4,0.3,10.8
	c0,6.4,0,18.6,4.1,23.5C411.1,225.7,413.7,225.3,415.4,224z"/>
<path class="st2" d="M453.3,186.7c0.1,5.1,0,12.7-6,22.2c-3.3,5.1-14.9,13.1-18.4,13.4C422.4,221.3,429.2,189.1,453.3,186.7z
	 M470.9,253.9c-0.1-12.8-4.8-22.9-8.1-35c-0.3-1-0.4-2-0.7-3.1c-1.3-5.6-2.3-11.4-2.8-17.1c-0.7-5-1.3-10-1.3-15.1
	c0-0.6-0.3-1-0.9-1c-29.9-1.4-43.6,45-28.2,43.3c5.4-0.6,13.8-6.8,17.4-10.7c3.4-3.7,5.4-7,8.3-12.4c0.9,6.8,3,16.9,5,23.8
	c2.8,10,5.7,19.4,5.1,30.2c-1.6,24.5-42.3,14.8-45.1-1.3c-2.1-2.1-4-5.6-0.4-7.4l1.3-2.3c-1.7-0.1-5.6,0.7-7,1.6
	c-4.6,2.7,1.6,12,4.1,14.5l2.6,2.6c10.7,10.7,30.3,14.8,43,5C468.5,265.1,470.9,260.8,470.9,253.9z"/>
<path class="st3" d="M478.9,139.4c0,0-16,13.6-49.6,18.1c-29.1,3.8-36.4,1.8-51.2-2.2l1.5-3.5c0,0,25.8,9.5,66.7-2.1
	c7.1-2,10-3.3,14.6-5.3c12.6-5.5,14.6-10.4,15.4-9.1L478.9,139.4z"/>
<path class="st4" d="M478.9,139.4c0,0-16,13.6-49.6,18.1c-29.1,3.8-36.4,1.8-51.2-2.2l1.5-3.5c0,0,25.8,9.5,66.7-2.1
	c7.1-2,10-3.3,14.6-5.3c12.6-5.5,14.6-10.4,15.4-9.1L478.9,139.4z"/>
<path class="st5" d="M165.4,10.4c-5.9-0.1-11.8-1-17.7-0.4l3,1.2c-5.3,1.4-11.2-0.1-16.3,1.5l4.1,2c-0.7,0.2-1.5,0.3-2.2,0.3
	c-1.5,0.1-3,0.2-4.5,0.4c-2.3,0.2-6.1,0.2-8.2,1.3L131,18c-4.4,2.5-11.9-0.1-15.9,2.2l6.8,2.4c-1.8,1.7-4.9,2.6-6.8,4.6
	c-6.5,7-4.9,8.5-18.7,15.6c-8.6,4.4-19,6.6-24.8,9.5c-5.6,2.8-4.7,4.1-7.6,4.4C56,57.6,51.9,56.9,45.5,61c-13.6,8.9-7,21.3-12,33.8
	c-2.2,5.4-5.9,9.8-11.5,11.7l7.3-1.1c-1.9,2.8-6.5,3.3-9.5,4.3c-1.6,0.5,1.3-0.5-0.8,0.3l-0.8,0.4c14.7,1.8,24.3-3,32.6-15.5
	c10.9-16.6,1.1-31.6,10.9-32.4c-1.2,5.1-2.9,5.8-1.6,12.5c2.3,11.8,8.7,16.6-1.3,20.6c-3.1,1.2-8.9,2-10.8,4.2
	c-1.1,1.8,1.2,10,1.2,14.7c0,2.8-2.1,10.9-3.1,12.5c-2.6,1.9-4.2-0.9-6.5,2.9c-1.4,2.4-1.1,7.1,0.3,9.1c3.9,0,6.9-4.3,8.8-6.3
	c3.4-3.6,6.7-1.5,7.4-7.8c0.3-2.5-0.6-3.8-0.3-6.4c1.4-11.8,0.3-13.7,7.2-16.2c10.5-3.6,11.1-0.8,20.2-10.5
	c6.7-7.1,9.1-3.4,12.6-17.9c6.5-1,14,0.4,20.1-0.9c5.1-1,11-3.5,15.2-5.6c12.1-6,7.4-4,16.4-4.5c5.1-0.3,8.8-6,14.5-6.2
	c-0.2,1.5-0.6,1.9-2.4,3.4c-3.8,3.2-5.2,2.6-7.6,3.9c-1.8,1-1.8,1.9-3.3,2.9c-3.6,2.4-5.1-1.1-7.7,1.6c-1.8,1.9-2,6.5-1.3,9.5
	c2.5-0.1,4.4-1.7,6.2-3c3.1-2.3,1.9-2.6,6.5-3.4c4.8-0.8,5.1-3.2,11.2-8c3.5-2.8,9.4-4.8,7.2-11c-2.6-7.5-8.4-2.6-14.9-3.8
	c4-3.9-1.1-5.4,4.8-11.3c2.9-2.9,5.1-5.7,11.5-5.2c1.5,2,1.8,3.5,4.2,4.7c2.1,1,4.5,1.2,6.4,2.4c2.5,1.6,1.9,2,5.2,3.6
	c3.1,1.5,2.7,2.9,4.8,4.1c3.7,1.4,6.1-1,6.7-4.5c0.7-3.8-1.9-6-3.5-8.6c-6.5-10.4-4.8-12.9-6.6-17.1c0.7-0.7,1.2-1.3,2.1-2
	c1.3-1,1.7-0.6,2.4-2.2c-3.4-0.4-5.4,0.8-7.7-0.1c-8-3.2-12.9-3.9-22.6-4.2l0.9,0.8C165.2,9.9,164.9,9.1,165.4,10.4"/>
<path class="st6" d="M161.5,11.7c-14.7-0.2-22.8-0.2-37.5,7.7c-10.6,5.7-22.9,20.5-27.1,22.6c-8.1,4.2-17.8,6.2-23.2,8.9
	c-5.3,2.6-4.4,3.8-7.1,4.1c-7.6,0.8-11.5,0.2-17.4,4.1c-12.7,8.3-6.6,20-11.2,31.6c-2,5.1-5.6,9.2-10.8,10.9l6.8-1
	c-1.8,2.6-6.1,3.1-8.9,4c-1.5,0.5,1.2-0.5-0.8,0.3l-0.8,0.3c13.8,1.7,22.8-2.8,30.5-14.5c10.2-15.6,1-29.7,10.2-30.4
	c-1.1,4.8-2.7,5.4-1.5,11.7c2.2,11.1,8.1,15.5-1.2,19.3c-2.9,1.2-8.4,1.9-10.1,4c-1.1,1.7,1.2,9.4,1.2,13.8c0,2.6-1.9,10.2-2.9,11.7
	c-2.4,1.7-4-0.9-6.1,2.7c-1.3,2.2-1.1,6.6,0.3,8.6c3.7,0,6.5-4.1,8.3-5.9c3.2-3.3,6.3-1.4,6.9-7.3c0.3-2.4-0.5-3.5-0.3-6
	c1.3-11.1,0.2-12.9,6.8-15.1c9.8-3.4,10.4-0.8,18.9-9.8c6.3-6.7,8.6-3.2,11.8-16.8c6.1-1,13.2,0.4,18.9-0.8c4.8-1,10.3-3.3,14.2-5.2
	c11.3-5.6,7-3.7,15.3-4.2c4.7-0.3,8.3-5.7,13.6-5.8c-0.2,1.4-0.6,1.8-2.2,3.2c-3.6,3-4.9,2.5-7.1,3.6c-1.7,0.9-1.6,1.8-3.1,2.8
	c-3.4,2.2-4.8-1.1-7.2,1.5c-1.7,1.8-1.9,6.1-1.2,8.9c2.4-0.1,4.1-1.6,5.8-2.8c2.9-2.1,1.8-2.5,6.1-3.2c4.5-0.8,4.8-3,10.5-7.5
	c3.3-2.6,8.8-4.5,6.8-10.4c-2.4-7.1-7.9-2.4-13.9-3.6c3.8-3.7-1.1-5,4.5-10.6c2.7-2.7,4.8-5.3,10.8-4.9c1.4,1.8,1.7,3.3,3.9,4.4
	c1.9,1,4.2,1.1,6,2.3c2.3,1.5,1.8,1.9,4.9,3.4c2.9,1.4,2.5,2.7,4.5,3.9c3.5,1.3,5.7-0.9,6.3-4.2c0.6-3.6-1.8-5.6-3.3-8.1
	c-6.1-9.8-4.5-12.1-6.2-16c0.7-0.6,1.1-1.2,2-1.9c1.3-0.9,1.6-0.5,2.2-2c-3.2-0.3-5.1,0.8-7.2-0.1c-7.4-2.9-12.1-3.6-21-3.9
	c-0.1,0-0.5,0.1-0.1,0.4C160.7,11,161,10.8,161.5,11.7"/>
<path class="st6" d="M110,15.8c-1.8,1-3.8,3.2-4.4,6.1c1.3-0.6,6-4.7,7.4-1.6c0.3,0.7,0.3,0,0,0.8c-0.5,1.4-4.7,5.3-5.1,15.8
	c7.8-16.1,22.7-20.2,38.8-22.6c7.2,0.3,11.1-0.4,16.7-0.6c0-10.7-16.2-10.2-21.8-11.3c3.2,1.7,8.9,2.5,10.2,5.5l-7.4-0.5
	c-2.6-0.9-4.2-2.4-6.4-3.8c-4-2.5-9.8-4.8-13.5-2.8c3.2,1,9.7,2.5,8.6,6.1c-1.2,3.7-7.3,0.8-10.5,0c-7.2-1.8-13.5,1.7-16.8,7.9
	c1.4-0.4,8.3-6.1,10.5-1.5c-0.4,0.3-0.1,0.1-0.7,0.4C113.8,14.4,113.3,13.8,110,15.8"/>
<path class="st6" d="M33.7,78.7c-1.5,1.2-3,3.4-3.3,6c1.2-0.7,4.9-5,6.5-2.3c0.4,0.6,0.3,0,0.1,0.8c-0.3,1.3-3.6,5.4-2.7,14.8
	c30.8-57.4,19.8-27.7,9.6-28.9c-6.7-0.8-12,3.1-14.2,9.1c1.2-0.5,6.8-6.5,9.3-2.6c-0.4,0.3,0,0.1-0.6,0.5C37,77,36.5,76.6,33.7,78.7
	"/>
<path class="st7" d="M385,69.8c0.1,1.5,1.3,2.7,2.5,3.5l2.1,2.1c0.5,0.4,1,0.9,1.3,1.5c0.4,1,0,2.4-0.8,3c-0.3,0.2-0.6,0.4-0.8,0.6
	c-0.4,0.5-0.8,0.5-1,1.8c-0.2,0.9-0.3,1.6,0.2,2.4c0.6,1.2,1.4,2.2,0.8,3.4c-0.1,0.1-0.1,0.3-0.2,0.4c-0.1,0.3-0.2,0.5-0.3,0.7
	l-0.2,0.8c-0.2,1.2-0.3,0.2-0.1,1.8c0.1,0.7,0.1,1.4,0.2,2.1c0.1,0.6-0.3,2.4-0.6,2.8l-0.8,0.8c-0.2,0.2-0.3,0.3-0.5,0.5
	c-0.7,0.9-0.2,3.7,0,4.6c0.2,1,0.1,1.4,0.5,2.7c0.3,0.8,0.5,1.6,0.8,2.4l0.4,1.1c0.1,0.3,0.1,0.2,0.3,0.4c0,0.1,0.1,0.1,0.1,0.2
	l0.7,1.3c0.1,0.2,0.2,0.3,0.3,0.4c0.4,0.6,0.3,0.6,0.9,1.4l0.7,0.7c1.1,1.2,1.7,1.5,2.3,2.2l1.1,1.2c0.4,0.5,0.3,0.6,0.4,1.3
	c0.1,0.8,0.1,1.5,0,2.3c-0.1,1.1,0.4,2.4,0.2,3.5c-0.1,0.5,0,1.1-0.1,1.6c-0.1,0.8-0.1,1.7-0.5,2.4l-0.5,0.8
	c-0.1,0.2-0.1,0.1-0.3,0.3c-0.1,0.1-0.2,0.2-0.3,0.3c-0.2,0.1-0.5,0.4-0.8,0.5c-0.3,0.1-0.6,0.2-1,0.3c-0.4,0.1-0.5,0.2-1.1,0.3
	c-1.5,0.1-1.5,1.8-0.7,2.5l0.7,0.4c0.6,0.2,3.6-0.5,2.3,0.6l-0.9,0.7c-0.1,0.1-0.1,0.1-0.2,0.1c-0.3,0.2-0.4,0.4-0.6,0.7
	c-0.3,0.5-0.1,0.7,0.2,1.1c0.4,0.5,0.5,0.5,1.9,0.4c1-0.1,3.8-0.1,4.4-0.7c0.4-0.4,0.6-1,0.7-1.6l1-2.9c0.1-0.2,0.1-0.4,0.2-0.6
	l0.2-0.6c0.1-0.2,0.2-0.3,0.2-0.5c0.1-0.3,0-0.3,0.2-0.6c0.6-1.2,0.9-2.7,1.8-3.6c0.4-0.4,1.1-0.9,1.7-0.9c1.4-0.1,1.9,0.3,3,0.9
	c1.6,0.7,1.9,1.1,2.9,1.6c0.1,0,0.2,0.1,0.3,0.1c1.2,0.7,1.2,0.4,2.5,1.6c1,0.8,1.8,1.1,2.8,1.7c0.4,0.2,1,0.2,1.1,0.7
	c0.1,1-0.4,1.2-1.1,1.6c-0.3,0.2-0.3,0.2-0.6,0.3c-0.7,0.2-1.3,0.6-1.9,0.9L412,135c-0.4,0.2-0.8,0.5-0.8,1.1c0,0.4,0.2,0.5,0.4,0.7
	c0.3,0.4,0.2,0.3,0.6,0.5c0.4,0.3,0.1,0.2,0.7,0.3c0.5,0,0.8,0.1,1.4,0.1c0.5,0,1-0.3,1.5-0.4c0.6-0.2,0.8-0.5,1.5-0.5
	c1.4-0.1,3-0.3,4.4-0.3l3.7,0c0.9-0.1,1.7-0.2,2.6-0.1c0.4,0,0.9-0.1,1.3-0.1c1.5-0.1,2,0.1,3.5-0.5c0.7-0.3,1.3-0.5,1.8-1
	c0.9-0.9,1.8-0.6,2.5-0.9c0.2-0.1,0.3-0.2,0.5-0.2c1.9-0.7,1.5-0.2,3.6,0c0.4,0,0.9,0,1.4,0c0.5,0,0.8,0.1,1.4,0
	c1.7-0.2,0.8-0.2,1.8-0.4c0.3-0.1,0.5-0.2,0.8-0.3c0.3-0.1,0.5-0.2,0.8-0.3l1.5-0.7l2.7-0.7c0.7-0.1,1.5-0.1,2.3-0.1
	c0.4,0,0.7,0.1,1.1,0.2c0.8,0.1,1.5,0.1,2.2,0.2c1.6,0.2,2.6,1.1,3.9,1.8c0.6,0.4,0.2,0.2,1.2,0.7c0.3,0.1,0.5,0.3,0.8,0.4
	c0.6,0.2,1.2,0.5,1.9,0.6c1,0.2,2.4-0.2,3.2-0.8c0.6-0.5,0.8-0.8,0.4-1.7c-0.2-0.4-0.2-0.5-0.5-0.8c-0.1-0.1-0.2-0.2-0.3-0.3
	c-0.4-0.3-1.2-1.4-1.7-1.7l-1.7-0.9c-0.4-0.2-0.7-0.5-1.1-0.7c-0.8-0.4-1.2-0.9-2.5-1.3c-0.2-0.1-0.2-0.1-0.4-0.2
	c-0.2-0.1-0.7-0.2-1-0.2c-1.6-0.2-1.8-0.5-3.5-0.1c-0.8,0.2-1.2,0.1-2.1,0.3c-0.9,0.2-1.6,0.3-2.5,0.4c-0.7,0.1-1.7,0.3-2.3,0.5
	l-3.7,0.6c-1.1,0.1-2.2,0.3-3.2,0.2c-0.6-0.1-0.9-0.3-1.2-0.7c-0.4-0.5-0.5-0.6-0.7-1.4c-0.1-0.5-0.2-0.7-0.3-1
	c-0.1-0.8-0.3-1.4-0.7-2.2c-0.3-0.6-0.4-1.5-0.7-2.1c-0.2-0.4-0.3-0.5-0.5-0.9c-0.4-1.3-0.2-0.8-0.8-2l-0.4-0.9
	c-0.7-1.6-1.1-1.9-1.7-3.1c-0.5-0.9-0.7-1.2-1.2-1.9l-2.1-2.7c-0.3-0.3-0.5-0.7-1-1.3c-0.2-0.2-0.4-0.5-0.6-0.7l-0.6-0.7
	c-0.7-0.9-1.4-1.7-2.3-2.3c-0.2-0.1-0.2-0.2-0.4-0.3c-0.3-0.3-0.5-0.3-0.7-0.7c-0.2-0.3,0-0.2-0.2-0.4l-1.1-0.9
	c-0.5-0.4-0.8-1-1.2-1.5c-0.2-0.3-0.4-0.4-0.6-0.7c-0.2-0.3-0.3-0.5-0.6-0.7c-1.2-1-1.2-1.5-2.8-2.4c-0.4-0.2-0.5-0.3-0.8-0.6
	l-0.8-0.6c-0.2-0.1-0.2-0.2-0.3-0.3l-2.6-2.1c-0.5-0.4-1-0.7-1.4-1.1l-0.7-0.7c-1.1-1.1-1.8-2.8-2.6-4.1c-0.4-0.6-0.5-1.3-0.8-1.9
	c-0.2-0.3-0.2-0.6-0.4-1c-0.5-0.8-1-1.9-1.3-2.8c-0.2-0.6-0.6-1.5-0.7-2.1c0-0.2,0-0.4-0.1-0.6c-0.1-0.4-0.2-0.5-0.2-1
	c0-0.5,0.3-1.3,0.5-1.8c0.8-1.8,0.1-0.9,1.5-2.1c0.4-0.4,0.5-1.1,0.7-1.6l0.2-0.5c0.1-0.4,0.4-0.7,0.7-1.1c0.3-0.3,0.3-0.2,0.6-0.6
	c0.2-0.4,0.5-0.5,0.9-1c0.2-0.2,0.1-0.2,0.3-0.3c0.2-0.2,0.9-1.2,1-1.4c0.1-0.5,0.1-0.4,0.3-0.9c0.1-0.3,0.1-0.2,0.1-0.5
	c0-0.2,0-0.3,0-0.6c-0.1-0.7-0.8-0.7-1.3-0.7c-1.1,0.1-2.7,0.9-2.9,1l-1.1,0.2c-0.9,0.2-1.4,0.1-2.2,0.4c-1.3,0.5-3,0.9-4.4,0.7
	c-0.6-0.1-1.2-0.6-1.7-0.9c-0.5-0.4-0.5-0.4-1.2-0.5c-0.5-0.1-1.1-0.4-1.5-0.4c-0.7,0.1-1.1,1.1-2.6,0.8c-0.6-0.1-0.8-0.3-1.3-0.5
	c-0.2-0.1-0.4-0.2-0.6-0.3c-0.8-0.3-1-0.4-1.8-0.9c-0.2-0.1-0.4-0.2-0.5-0.4c-0.5-0.4-0.9-1-1.5-1.2c-0.4-0.2-0.8-0.5-1.3-0.5
	c-0.9,0.1-1,0.7-1.3,1.3c-0.5,1.2-0.2,1-0.3,2.2c0,0.9,0.3,1.5-0.4,2.1C385.6,68.4,384.9,69.3,385,69.8"/>
<path class="st8" d="M388.4,91.5l0-2.8c9.5-2.1,10.6-2.3,20.4-5.5l1.4,1.9C410.3,85,410.1,86.7,388.4,91.5"/>
<path class="st3" d="M412.5,79.2c-4,4.4-1.5,5.6,2.2,2.7c0,0,15.8-12.4,18.1-16.4C437.9,57,417.3,73.9,412.5,79.2z"/>
<path class="st4" d="M412.5,79.2c-4,4.4-1.5,5.6,2.2,2.7c0,0,15.8-12.4,18.1-16.4C437.9,57,417.3,73.9,412.5,79.2z"/>
</svg>
